<svg xmlns="http://www.w3.org/2000/svg" width="80" height="80" viewBox="0 0 80 80" fill="none">
  <g clip-path="url(#clip0_433_1462)">
    <path d="M64 0H16C7.16344 0 0 7.16344 0 16V64C0 72.8366 7.16344 80 16 80H64C72.8366 80 80 72.8366 80 64V16C80 7.16344 72.8366 0 64 0Z" fill="#343434"/>
    <path fill-rule="evenodd" clip-rule="evenodd" d="M62.8284 17.1716C64.3905 18.7337 64.3905 21.2663 62.8284 22.8284L22.8284 62.8284C21.2663 64.3905 18.7337 64.3905 17.1716 62.8284C15.6095 61.2663 15.6095 58.7337 17.1716 57.1716L57.1716 17.1716C58.7337 15.6095 61.2663 15.6095 62.8284 17.1716Z" fill="white"/>
    <path opacity="0.4" fill-rule="evenodd" clip-rule="evenodd" d="M12 40C12 37.7909 13.7909 36 16 36H64C66.2091 36 68 37.7909 68 40C68 42.2091 66.2091 44 64 44H16C13.7909 44 12 42.2091 12 40Z" fill="white"/>
    <path d="M26 28C29.3137 28 32 25.3137 32 22C32 18.6863 29.3137 16 26 16C22.6863 16 20 18.6863 20 22C20 25.3137 22.6863 28 26 28Z" fill="white"/>
    <path d="M54 52C50.6863 52 48 54.6863 48 58C48 61.3137 50.6863 64 54 64C57.3137 64 60 61.3137 60 58C60 54.6863 57.3137 52 54 52Z" fill="white"/>
  </g>
  <defs>
    <clipPath id="clip0_433_1462">
      <rect width="80" height="80" fill="white"/>
    </clipPath>
  </defs>
</svg>